<svg version="1.1" xmlns="http://www.w3.org/2000/svg" xmlns:xlink="http://www.w3.org/1999/xlink" x="0px" y="0px" viewBox="0 0 32 32" style="enable-background:new 0 0 32 32;" xml:space="preserve">
<path d="M14.4 19.84l6.080 5.6v-3.2h9.6v-4.8h-9.6v-3.2z"></path>
<path d="M24.96 23.040v5.2c0 0.32-0.24 0.56-0.56 0.56h-16.8c-0.32 0-0.56-0.24-0.56-0.56v-18.24c0-0.32 0.24-0.56 0.56-0.56h16.88c0.32 0 0.56 0.24 0.56 0.56v6.64h2.4v-9.2c0-1.6-1.28-2.88-2.88-2.88h-4.72c0-2.080-1.76-3.76-3.84-3.76s-3.84 1.68-3.84 3.84h-4.72c-1.6 0-2.88 1.28-2.88 2.88v20.88c0 1.6 1.28 2.88 2.88 2.88h17.12c1.6 0 2.88-1.28 2.88-2.88v-5.28h-2.48zM16 3.2c0.8 0 1.44 0.64 1.44 1.44s-0.64 1.36-1.44 1.36-1.44-0.64-1.44-1.44 0.64-1.36 1.44-1.36z"></path>
</svg>