<svg version="1.1" xmlns="http://www.w3.org/2000/svg" xmlns:xlink="http://www.w3.org/1999/xlink" x="0px"
	 y="0px" viewBox="0 0 48 48" style="enable-background:new 0 0 48 48;" xml:space="preserve">
<polygon points="24,38 33,29 27.5,29 27.5,19 20.5,19 20.5,29 15,29 "/>
<path d="M38,5.5h-9c0-2.8-2.2-5-5-5s-5,2.2-5,5h-9c-2.2,0-4,1.8-4,4v33c0,2.2,1.8,4,4,4h28c2.2,0,4-1.8,4-4v-33
	C42,7.3,40.2,5.5,38,5.5z M24,3.5c1.1,0,2,0.9,2,2s-0.9,2-2,2s-2-0.9-2-2S22.9,3.5,24,3.5z M38,42.5H10v-33h5v3c0,0.6,0.4,1,1,1h16
	c0.6,0,1-0.4,1-1v-3h5V42.5z"/>
</svg>
