<svg version="1.1" xmlns="http://www.w3.org/2000/svg" xmlns:xlink="http://www.w3.org/1999/xlink" x="0px" y="0px" viewBox="0 0 32 32" style="enable-background:new 0 0 32 32;" xml:space="preserve">
<path d="M23.12 15.6l-1.52-1.52c-0.080-0.080-0.24-0.080-0.32 0l-7.68 7.76-2.88-2.88c-0.080-0.080-0.24-0.080-0.32 0l-1.52 1.52c-0.080 0.080-0.080 0.24 0 0.32l4.56 4.56c0.080 0.080 0.24 0.080 0.32 0l9.44-9.44c0-0.080 0-0.24-0.080-0.32z"></path>
<path d="M27.36 7.44v20.88c0 1.6-1.28 2.88-2.88 2.88h-17.040c-1.6 0-2.88-1.28-2.88-2.88v-20.88c0-1.6 1.28-2.88 2.88-2.88h4.72c0-2.080 1.76-3.76 3.84-3.76s3.84 1.68 3.84 3.84h4.72c1.6 0 2.8 1.2 2.8 2.8zM16 3.2c-0.8 0-1.44 0.64-1.44 1.44s0.64 1.36 1.44 1.36 1.44-0.64 1.44-1.44-0.64-1.36-1.44-1.36zM24.96 28.24v-18.24c0-0.32-0.24-0.56-0.56-0.56h-16.8c-0.32 0-0.56 0.24-0.56 0.56v18.24c0 0.32 0.24 0.56 0.56 0.56h16.88c0.24 0 0.48-0.24 0.48-0.56z"></path>
</svg>