<?xml version="1.0" encoding="utf-8"?>
<!-- Generator: Adobe Illustrator 22.1.0, SVG Export Plug-In . SVG Version: 6.00 Build 0)  -->
<svg version="1.1" id="レイヤー_1" xmlns="http://www.w3.org/2000/svg" xmlns:xlink="http://www.w3.org/1999/xlink" x="0px"
	 y="0px" viewBox="0 0 50 56" style="enable-background:new 0 0 50 56;" xml:space="preserve">
<style type="text/css">
	.st0{fill:#1F1E1E;}
</style>
<title></title>
<g id="icomoon-ignore">
</g>
<path class="st0" d="M46.6,12.5c-1.2-1.6-2.8-3.5-4.5-5.4c-1.8-1.8-3.6-3.5-5.2-4.7C34,0.3,32.4,0,31.5,0H6.3C3.4,0,1,2.4,1,5.4
	v45.1c0,3,2.4,5.4,5.3,5.4h37.4c2.9,0,5.3-2.4,5.3-5.4V18C49,17.1,48.8,15.5,46.6,12.5z M33.1,19.2h10.1l-0.1,30.9L6.8,50V5.9h23.5
	v10.4C30.2,17.9,31.5,19.2,33.1,19.2z M36,13.4v-4c0.6,0.6,1.3,1.2,2,1.9s1.3,1.4,1.9,2.1H36z"/>
</svg>
